<svg width="883" height="278" viewBox="0 0 883 278" fill="none" xmlns="http://www.w3.org/2000/svg">
<path d="M248.56 107.825H218.315C215.182 97.1468 212.958 86.5965 209.005 76.7376C200.595 55.7395 185.539 41.0579 164.105 33.2349C163.072 32.855 161.954 32.7056 159.555 32.138C177.211 85.5039 194.555 137.922 211.899 190.337C212.326 190.268 212.757 190.2 213.184 190.132C214.58 183.499 215.976 176.863 217.568 169.291H249C247.356 177.341 246.315 184.844 244.257 192.056C239.442 208.923 232.087 224.497 220.621 238.099C207.374 253.813 190.973 264.679 171.627 270.919C144.345 279.719 116.712 280.304 88.9818 272.745C66.0153 266.489 46.9933 254.035 31.8217 235.803C14.0376 214.425 4.97913 189.423 1.5427 162.07C-0.544776 145.459 -0.587461 128.879 1.86713 112.37C6.44762 81.5817 18.2041 54.0751 40.9827 32.2063C57.4818 16.3639 77.4302 6.76958 99.846 2.60411C123.513 -1.7961 147.004 -0.720544 170.03 6.59891C201.424 16.5773 223.814 36.6876 237.393 66.7251C243.237 79.6526 246.716 93.1605 248.565 107.825H248.56ZM170.483 141.183C168.993 141.008 167.853 140.76 166.709 140.76C140.661 140.735 114.612 140.837 88.5634 140.637C84.3842 140.603 83.2444 142.805 82.2242 145.972C74.5573 169.752 66.9374 193.546 59.0443 217.254C57.8917 220.724 58.2204 223.02 60.7561 225.542C68.1839 232.939 76.5551 238.978 86.1814 243.088C107.009 251.991 128.686 252.998 150.59 248.615C166.999 245.328 181.543 238.047 193.372 225.816C196.049 223.046 196.527 220.348 195.366 216.84C187.084 191.822 178.888 166.773 170.487 141.183H170.483ZM40.3509 193.128L41.3712 192.931C59.0869 139.454 76.807 85.9819 94.8045 31.6515C80.9776 36.1456 69.8146 43.0084 60.4999 52.688C47.7061 65.9783 40.1716 82.1578 35.8643 99.891C29.858 124.615 29.9562 149.497 34.9337 174.353C36.2101 180.721 38.5153 186.88 40.3509 193.132V193.128ZM132.652 27.2598C130.646 27.1403 129.109 26.9952 127.568 26.9653C121.814 26.8629 121.715 26.8459 119.871 32.4155C110.971 59.2734 102.126 86.1483 93.272 113.019C92.6316 114.957 92.0767 116.924 91.368 119.242H163.281C152.985 88.3207 142.902 58.0442 132.652 27.2598Z" fill="#0296EC"/>
<path d="M309.522 206.194L325.322 164.463H330.985L346.784 206.194H341.718L328.307 170.126H328.008L314.597 206.194H309.531H309.522ZM316.913 195.764L318.699 191.295H337.599L339.386 195.764H316.913Z" fill="white"/>
<path d="M351.249 206.194V175.197H354.827L355.424 179.372H355.722C356.597 177.9 357.71 176.839 359.061 176.182C360.413 175.525 362.08 175.197 364.068 175.197H367.347V179.372H364.068C362.477 179.372 361.057 179.709 359.803 180.387C358.55 181.065 357.556 181.986 356.823 183.158C356.085 184.331 355.718 185.653 355.718 187.124V206.199H351.249V206.194Z" fill="white"/>
<path d="M372.711 206.194V164.463H377.185V189.798L391.79 175.192H397.453L382.251 190.395L398.344 206.194H392.681L377.18 190.992V206.194H372.707H372.711Z" fill="white"/>
<path d="M409.969 206.791C407.824 206.791 405.935 206.373 404.306 205.538C402.677 204.702 401.423 203.559 400.549 202.109C399.675 200.659 399.235 199.039 399.235 197.252C399.235 195.465 399.692 193.845 400.608 192.395C401.521 190.945 402.852 189.802 404.604 188.966C406.353 188.13 408.438 187.713 410.864 187.713H421.056V191.887H410.864C408.519 191.887 406.741 192.365 405.53 193.316C404.318 194.271 403.713 195.58 403.713 197.252C403.713 198.924 404.267 200.182 405.385 201.158C406.498 202.13 408.028 202.621 409.973 202.621C411.918 202.621 413.61 202.233 415.039 201.457C416.468 200.68 417.572 199.64 418.348 198.327C419.124 197.013 419.512 195.563 419.512 193.973V185.627C419.512 183.563 418.826 181.9 417.457 180.651C416.084 179.397 414.288 178.775 412.062 178.775C410.195 178.775 408.655 179.171 407.444 179.969C406.233 180.766 405.389 181.858 404.911 183.248H400.144C400.86 180.467 402.272 178.331 404.378 176.839C406.485 175.35 409.048 174.604 412.067 174.604C414.532 174.604 416.655 175.06 418.446 175.977C420.233 176.894 421.606 178.182 422.561 179.853C423.517 181.521 423.994 183.452 423.994 185.636V206.203H420.416L419.819 202.028H419.521C418.847 203.222 417.632 204.314 415.883 205.307C414.135 206.301 412.169 206.796 409.981 206.796L409.969 206.791Z" fill="white"/>
<path d="M443.947 206.792C441.325 206.792 439.009 206.165 437.001 204.915C434.992 203.662 433.415 201.824 432.263 199.401C431.112 196.979 430.536 194.075 430.536 190.698C430.536 187.321 431.112 184.421 432.263 181.994C433.415 179.572 434.997 177.73 437.001 176.481C439.009 175.227 441.321 174.604 443.947 174.604C446.092 174.604 448.003 175.001 449.67 175.798C451.342 176.596 452.711 177.687 453.785 179.078H454.084V164.472H458.553V206.203H454.975L454.378 202.028H454.08C453.005 203.538 451.606 204.711 449.875 205.546C448.148 206.382 446.169 206.8 443.943 206.8L443.947 206.792ZM444.544 202.617C446.451 202.617 448.122 202.16 449.551 201.244C450.984 200.331 452.092 198.979 452.89 197.188C453.683 195.401 454.084 193.235 454.084 190.689C454.084 188.144 453.687 185.982 452.89 184.19C452.092 182.404 450.984 181.052 449.551 180.135C448.118 179.223 446.451 178.762 444.544 178.762C442.638 178.762 440.967 179.218 439.538 180.135C438.105 181.052 436.992 182.399 436.199 184.19C435.402 185.977 435.005 188.144 435.005 190.689C435.005 194.468 435.871 197.397 437.598 199.482C439.325 201.568 441.64 202.612 444.544 202.612V202.617Z" fill="white"/>
<path d="M469.405 169.533C468.531 169.533 467.785 169.235 467.171 168.638C466.553 168.041 466.246 167.308 466.246 166.433C466.246 165.559 466.553 164.813 467.171 164.199C467.785 163.585 468.531 163.273 469.405 163.273C470.28 163.273 471.013 163.58 471.61 164.199C472.207 164.817 472.506 165.559 472.506 166.433C472.506 167.308 472.207 167.994 471.61 168.608C471.013 169.226 470.28 169.533 469.405 169.533ZM467.197 206.194V175.197H471.666V206.194H467.197Z" fill="white"/>
<path d="M491.64 206.791C489.452 206.791 487.478 206.284 485.708 205.273C483.938 204.258 482.548 202.8 481.533 200.889C480.518 198.983 480.015 196.774 480.015 194.271V175.197H484.484V194.271C484.484 196.019 484.812 197.521 485.469 198.77C486.126 200.024 487.039 200.975 488.211 201.631C489.384 202.288 490.723 202.616 492.237 202.616C493.751 202.616 495.196 202.241 496.467 201.482C497.738 200.727 498.74 199.704 499.478 198.412C500.211 197.12 500.582 195.738 500.582 194.267V175.192H505.051V206.19H501.473L500.876 202.015H500.578C499.584 203.683 498.301 204.898 496.731 205.653C495.162 206.407 493.461 206.787 491.635 206.787L491.64 206.791Z" fill="white"/>
<path d="M523.235 206.791C521.209 206.791 519.358 206.424 517.691 205.687C516.024 204.953 514.642 203.938 513.546 202.646C512.454 201.354 511.708 199.853 511.312 198.147H516.079C516.514 199.58 517.393 200.68 518.702 201.456C520.011 202.232 521.525 202.62 523.23 202.62C525.653 202.62 527.503 202.185 528.774 201.307C530.045 200.433 530.68 199.282 530.68 197.849C530.68 196.774 530.352 195.921 529.695 195.286C529.038 194.65 528.207 194.164 527.192 193.823C526.177 193.486 524.817 193.12 523.107 192.719C520.8 192.203 518.923 191.665 517.474 191.111C516.024 190.557 514.783 189.648 513.746 188.399C512.715 187.145 512.199 185.427 512.199 183.243C512.199 181.734 512.646 180.314 513.538 178.979C514.433 177.648 515.721 176.587 517.414 175.789C519.103 174.996 521.039 174.595 523.226 174.595C525.056 174.595 526.753 174.894 528.322 175.491C529.891 176.088 531.222 176.97 532.318 178.143C533.409 179.316 534.156 180.719 534.552 182.348H529.785C529.307 181.235 528.522 180.361 527.431 179.725C526.339 179.09 524.936 178.77 523.226 178.77C521.039 178.77 519.401 179.167 518.309 179.964C517.218 180.761 516.672 181.853 516.672 183.243C516.672 184.395 517.017 185.311 517.717 185.985C518.412 186.663 519.265 187.188 520.279 187.563C521.294 187.943 522.714 188.348 524.544 188.787C526.808 189.346 528.646 189.891 530.058 190.424C531.469 190.962 532.672 191.827 533.665 193.017C534.659 194.211 535.158 195.819 535.158 197.844C535.158 199.435 534.672 200.915 533.699 202.284C532.723 203.657 531.333 204.748 529.525 205.563C527.716 206.377 525.618 206.787 523.235 206.787V206.791Z" fill="white"/>
<path d="M539.034 206.194V202.616L556.321 179.367H539.631V175.192H561.686V178.77L544.398 202.019H561.984V206.194H539.034Z" fill="white"/>
<path d="M594.47 206.791C591.728 206.791 589.302 206.322 587.195 205.388C585.088 204.454 583.37 203.145 582.039 201.452C580.709 199.764 579.784 197.768 579.268 195.461H584.334C585.088 197.687 586.329 199.384 588.061 200.557C589.788 201.729 591.924 202.314 594.47 202.314C596.696 202.314 598.564 201.985 600.073 201.329C601.583 200.672 602.717 199.789 603.472 198.676C604.227 197.563 604.606 196.292 604.606 194.86C604.606 193.35 604.159 192.139 603.263 191.222C602.367 190.31 601.255 189.602 599.924 189.107C598.594 188.612 596.734 188.062 594.351 187.47C591.37 186.753 588.965 186.02 587.135 185.265C585.306 184.51 583.737 183.329 582.427 181.717C581.114 180.109 580.462 177.93 580.462 175.188C580.462 173.082 581.016 171.163 582.129 169.436C583.242 167.709 584.85 166.344 586.956 165.35C589.063 164.357 591.566 163.858 594.466 163.858C596.969 163.858 599.203 164.246 601.174 165.022C603.144 165.798 604.781 166.949 606.09 168.48C607.404 170.011 608.295 171.849 608.773 173.994H603.707C603.071 172.246 601.979 170.864 600.427 169.849C598.879 168.834 596.888 168.331 594.466 168.331C592.517 168.331 590.879 168.63 589.549 169.227C588.218 169.824 587.212 170.638 586.538 171.67C585.864 172.702 585.523 173.875 585.523 175.188C585.523 176.817 585.988 178.131 586.926 179.124C587.86 180.118 589.024 180.873 590.415 181.389C591.805 181.905 593.732 182.48 596.197 183.116C599.097 183.832 601.442 184.557 603.233 185.291C605.02 186.028 606.542 187.158 607.792 188.689C609.045 190.22 609.668 192.275 609.668 194.86C609.668 197.005 609.071 198.983 607.881 200.791C606.687 202.599 604.939 204.049 602.636 205.145C600.329 206.237 597.608 206.783 594.47 206.783V206.791Z" fill="white"/>
<path d="M625.173 206.194C623.702 206.194 622.38 205.857 621.208 205.179C620.035 204.506 619.11 203.58 618.436 202.407C617.762 201.235 617.421 199.913 617.421 198.442V179.367H612.653V175.192H617.421L618.018 166.847H621.894V175.192H629.941V179.367H621.894V198.442C621.894 199.474 622.231 200.331 622.909 201.005C623.583 201.683 624.44 202.019 625.472 202.019H629.945V206.194H625.178H625.173Z" fill="white"/>
<path d="M644.546 206.791C642.401 206.791 640.512 206.373 638.883 205.538C637.254 204.702 636.001 203.559 635.126 202.109C634.252 200.659 633.813 199.039 633.813 197.252C633.813 195.465 634.269 193.845 635.186 192.395C636.099 190.945 637.429 189.802 639.182 188.966C640.93 188.13 643.015 187.713 645.442 187.713H655.634V191.887H645.442C643.096 191.887 641.318 192.365 640.107 193.316C638.896 194.271 638.291 195.58 638.291 197.252C638.291 198.924 638.845 200.182 639.962 201.158C641.075 202.13 642.606 202.621 644.551 202.621C646.495 202.621 648.188 202.233 649.617 201.457C651.045 200.68 652.15 199.64 652.926 198.327C653.702 197.013 654.09 195.563 654.09 193.973V185.627C654.09 183.563 653.403 181.9 652.035 180.651C650.661 179.397 648.866 178.775 646.64 178.775C644.772 178.775 643.233 179.171 642.022 179.969C640.811 180.766 639.966 181.858 639.489 183.248H634.721C635.438 180.467 636.849 178.331 638.956 176.839C641.062 175.35 643.625 174.604 646.644 174.604C649.109 174.604 651.233 175.06 653.024 175.977C654.811 176.894 656.184 178.182 657.139 179.853C658.094 181.521 658.572 183.452 658.572 185.636V206.203H654.994L654.397 202.028H654.099C653.425 203.222 652.209 204.314 650.461 205.307C648.713 206.301 646.747 206.796 644.559 206.796L644.546 206.791Z" fill="white"/>
<path d="M666.602 206.194V175.197H670.179L670.776 179.371H671.075C672.068 177.704 673.348 176.489 674.921 175.734C676.491 174.979 678.192 174.6 680.017 174.6C682.201 174.6 684.179 175.107 685.949 176.118C687.719 177.133 689.109 178.591 690.124 180.497C691.139 182.403 691.642 184.612 691.642 187.116V206.19H687.173V187.116C687.173 185.367 686.844 183.866 686.188 182.617C685.531 181.363 684.618 180.412 683.446 179.755C682.273 179.099 680.93 178.77 679.42 178.77C677.911 178.77 676.461 179.15 675.186 179.904C673.915 180.659 672.909 181.683 672.175 182.975C671.437 184.267 671.071 185.648 671.071 187.12V206.194H666.602Z" fill="white"/>
<path d="M699.987 206.194V164.463H704.46V189.798L719.066 175.192H724.729L709.527 190.395L725.62 206.194H719.957L704.456 190.992V206.194H699.983H699.987Z" fill="white"/>
<path d="M731.403 169.533C730.528 169.533 729.782 169.235 729.168 168.638C728.55 168.041 728.243 167.308 728.243 166.433C728.243 165.559 728.55 164.813 729.168 164.199C729.782 163.585 730.528 163.273 731.403 163.273C732.277 163.273 733.01 163.58 733.607 164.199C734.204 164.817 734.503 165.559 734.503 166.433C734.503 167.308 734.204 167.994 733.607 168.608C733.01 169.226 732.277 169.533 731.403 169.533ZM729.198 206.194V175.197H733.667V206.194H729.198Z" fill="white"/>
<path d="M754.831 206.791C752.008 206.791 749.526 206.164 747.381 204.915C745.236 203.661 743.556 201.836 742.345 199.431C741.134 197.026 740.528 194.118 740.528 190.698C740.528 187.278 741.125 184.421 742.315 181.994C743.509 179.572 745.168 177.73 747.292 176.48C749.419 175.227 751.833 174.604 754.537 174.604C757.556 174.604 760.119 175.342 762.225 176.809C764.332 178.28 765.91 180.139 766.963 182.382C768.016 184.629 768.545 186.902 768.545 189.209C768.545 189.806 768.515 190.374 768.456 190.907C768.396 191.444 768.328 191.87 768.247 192.19H743.445V188.015H764.012C763.854 186.348 763.406 184.817 762.669 183.427C761.931 182.037 760.882 180.915 759.509 180.058C758.14 179.205 756.477 178.775 754.532 178.775C752.345 178.775 750.537 179.29 749.108 180.322C747.675 181.354 746.635 182.757 745.978 184.527C745.321 186.297 744.993 188.352 744.993 190.698C744.993 193.243 745.39 195.405 746.187 197.196C746.98 198.983 748.123 200.335 749.616 201.252C751.108 202.169 752.844 202.625 754.831 202.625C756.618 202.625 758.178 202.25 759.509 201.491C760.839 200.736 761.961 199.623 762.878 198.152H767.645C766.967 200.019 766.008 201.602 764.754 202.889C763.5 204.182 762.033 205.154 760.345 205.81C758.656 206.467 756.818 206.796 754.831 206.796V206.791Z" fill="white"/>
<path d="M780.464 206.194L771.82 175.197H776.289L783.146 200.233H783.445L790.481 175.197H795.189L802.225 200.233H802.524L809.381 175.197H813.85L805.206 206.194H799.722L792.984 182.05H792.686L785.948 206.194H780.464Z" fill="white"/>
<path d="M820.821 169.533C819.947 169.533 819.201 169.235 818.587 168.638C817.969 168.041 817.662 167.308 817.662 166.433C817.662 165.559 817.969 164.813 818.587 164.199C819.201 163.585 819.947 163.273 820.821 163.273C821.696 163.273 822.429 163.58 823.026 164.199C823.623 164.817 823.922 165.559 823.922 166.433C823.922 167.308 823.623 167.994 823.026 168.608C822.429 169.226 821.696 169.533 820.821 169.533ZM818.617 206.194V175.197H823.086V206.194H818.617Z" fill="white"/>
<path d="M844.25 206.791C841.427 206.791 838.945 206.164 836.8 204.915C834.655 203.661 832.975 201.836 831.764 199.431C830.553 197.026 829.947 194.118 829.947 190.698C829.947 187.278 830.553 184.369 831.764 181.964C832.975 179.559 834.655 177.73 836.8 176.48C838.945 175.227 841.431 174.604 844.25 174.604C846.237 174.604 848.075 174.932 849.764 175.589C851.452 176.246 852.924 177.218 854.173 178.51C855.427 179.802 856.386 181.38 857.064 183.248H852.297C851.38 181.738 850.258 180.617 848.928 179.879C847.597 179.145 846.037 178.775 844.25 178.775C842.344 178.775 840.642 179.231 839.154 180.148C837.662 181.064 836.502 182.425 835.666 184.233C834.83 186.041 834.412 188.199 834.412 190.702C834.412 193.205 834.83 195.363 835.666 197.171C836.502 198.979 837.662 200.339 839.154 201.256C840.642 202.173 842.344 202.629 844.25 202.629C846.037 202.629 847.597 202.254 848.928 201.495C850.258 200.74 851.38 199.627 852.297 198.156H857.064C856.386 200.024 855.427 201.606 854.173 202.894C852.919 204.186 851.452 205.158 849.764 205.815C848.075 206.471 846.237 206.8 844.25 206.8V206.791Z" fill="white"/>
<path d="M860.049 206.194V202.616L877.337 179.367H860.646V175.192H882.701V178.77L865.414 202.019H883V206.194H860.049Z" fill="white"/>
<path d="M480.113 120.212C475.538 120.212 471.542 119.24 468.13 117.295C464.719 115.351 462.075 112.523 460.199 108.818C458.322 105.112 457.384 100.673 457.384 95.4959C457.384 90.319 458.322 85.8841 460.199 82.1741C462.075 78.4684 464.719 75.6411 468.13 73.6965C471.542 71.752 475.533 70.7798 480.113 70.7798C485.972 70.7798 490.629 72.2126 494.088 75.0697C497.542 77.9311 499.887 81.8116 501.124 86.7071H490.207C489.29 84.6474 488.045 83.0568 486.463 81.9353C484.885 80.8138 482.766 80.2551 480.113 80.2551C477.687 80.2551 475.572 80.8393 473.764 82.0077C471.956 83.1762 470.548 84.9033 469.542 87.1932C468.536 89.4832 468.032 92.2507 468.032 95.5002C468.032 98.7496 468.536 101.521 469.542 103.807C470.548 106.097 471.956 107.824 473.764 108.993C475.572 110.161 477.687 110.745 480.113 110.745C482.766 110.745 484.885 110.187 486.463 109.065C488.041 107.944 489.29 106.353 490.207 104.293H501.124C499.887 109.193 497.542 113.069 494.088 115.931C490.629 118.792 485.972 120.221 480.113 120.221V120.212Z" fill="white"/>
<path d="M521.448 120.212C517.742 120.212 514.548 119.47 511.87 117.982C509.192 116.493 507.132 114.331 505.691 111.491C504.25 108.655 503.529 105.244 503.529 101.261C503.529 97.2782 504.25 93.8923 505.691 91.0991C507.132 88.306 509.192 86.1568 511.87 84.6472C514.548 83.1376 517.742 82.3828 521.448 82.3828C525.153 82.3828 528.288 83.1376 530.991 84.6472C533.691 86.1568 535.763 88.3102 537.204 91.0991C538.646 93.8923 539.366 97.2782 539.366 101.261C539.366 105.244 538.646 108.655 537.204 111.491C535.763 114.331 533.691 116.493 530.991 117.982C528.292 119.47 525.111 120.212 521.448 120.212ZM521.448 111.423C522.957 111.423 524.318 111.056 525.533 110.323C526.744 109.589 527.716 108.459 528.45 106.924C529.183 105.393 529.55 103.504 529.55 101.261C529.55 99.018 529.183 97.1417 528.45 95.6322C527.716 94.1226 526.744 93.001 525.533 92.2675C524.318 91.5341 522.957 91.1674 521.448 91.1674C519.938 91.1674 518.505 91.5341 517.294 92.2675C516.083 93.001 515.119 94.1226 514.411 95.6322C513.699 97.1417 513.345 99.018 513.345 101.261C513.345 103.504 513.699 105.393 514.411 106.924C515.119 108.459 516.083 109.589 517.294 110.323C518.505 111.056 519.891 111.423 521.448 111.423Z" fill="white"/>
<path d="M559.895 120.212C556.782 120.212 554.036 119.491 551.656 118.05C549.277 116.608 547.422 114.468 546.095 111.632C544.769 108.796 544.104 105.338 544.104 101.265C544.104 97.1928 544.769 93.8623 546.095 91.0009C547.422 88.1396 549.277 85.9904 551.656 84.549C554.036 83.1077 556.782 82.387 559.895 82.387C562.227 82.387 564.219 82.8347 565.869 83.7259C567.515 84.6172 568.82 85.662 569.784 86.8517H570.129V71.4702H579.946V119.534H571.502L570.47 115.483H570.129C568.893 116.903 567.464 118.045 565.839 118.915C564.215 119.785 562.236 120.22 559.899 120.22L559.895 120.212ZM562.023 111.423C563.532 111.423 564.893 111.056 566.108 110.323C567.319 109.589 568.291 108.468 569.025 106.958C569.758 105.449 570.125 103.551 570.125 101.261C570.125 98.971 569.758 97.1416 569.025 95.6321C568.291 94.1225 567.319 93.0009 566.108 92.2674C564.893 91.534 563.532 91.1673 562.023 91.1673C560.513 91.1673 559.14 91.534 557.903 92.2674C556.667 93.0009 555.695 94.1225 554.987 95.6321C554.274 97.1416 553.921 99.0179 553.921 101.261C553.921 104.647 554.675 107.188 556.185 108.881C557.695 110.574 559.639 111.423 562.023 111.423Z" fill="white"/>
<path d="M604.73 120.212C601.025 120.212 597.831 119.47 595.153 117.982C592.475 116.493 590.415 114.344 588.974 111.53C587.532 108.715 586.812 105.295 586.812 101.265C586.812 97.2355 587.532 93.952 588.974 91.1375C590.415 88.3231 592.487 86.161 595.187 84.6472C597.886 83.1376 601.067 82.3828 604.73 82.3828C608.393 82.3828 611.357 83.1503 614.035 84.6812C616.713 86.2164 618.76 88.387 620.18 91.2057C621.6 94.0202 622.308 97.1673 622.308 100.647C622.308 101.334 622.274 102.02 622.206 102.707C622.137 103.393 622.056 103.965 621.967 104.425H593.818V97.4914H612.769C612.538 96.3912 612.103 95.3165 611.464 94.2632C610.824 93.2099 609.929 92.3656 608.786 91.7217C607.643 91.082 606.291 90.7622 604.735 90.7622C603.089 90.7622 601.656 91.1503 600.445 91.9306C599.234 92.711 598.283 93.8198 597.596 95.2611C596.91 96.7025 596.564 98.4082 596.564 100.374C596.564 102.8 596.837 104.873 597.387 106.587C597.937 108.302 598.807 109.606 599.997 110.502C601.187 111.393 602.743 111.841 604.666 111.841C606.453 111.841 607.801 111.534 608.717 110.916C609.634 110.297 610.457 109.372 611.191 108.135H621.694C621.054 110.331 620.056 112.336 618.709 114.144C617.357 115.952 615.528 117.419 613.216 118.536C610.905 119.657 608.078 120.216 604.739 120.216L604.73 120.212Z" fill="white"/>
<path d="M624.367 119.525L641.463 71.4619H654.44L671.604 119.525H660.687L648.052 82.997H647.711L635.007 119.525H624.363H624.367ZM635.694 110.668L639.126 101.607H656.84L660.273 110.668H635.694Z" fill="white"/>
<path d="M675.309 119.525V83.0693H683.753L684.853 87.1888H685.194C686.154 85.7261 687.369 84.6727 688.832 84.0288C690.294 83.3892 691.923 83.0693 693.706 83.0693H698.239V92.5448H694.392C692.469 92.5448 690.81 92.9115 689.416 93.6449C688.017 94.3784 686.968 95.4061 686.256 96.7366C685.544 98.0628 685.19 99.6662 685.19 101.543V119.529H675.301L675.309 119.525Z" fill="white"/>
<path d="M703.667 119.525V71.4619H713.552V99.2015L726.874 83.0653H738.273L723.578 100.779L739.3 119.525H727.629L713.552 102.771V119.525H703.667Z" fill="white"/>
</svg>
