<svg width="284" height="284" viewBox="0 0 284 284" fill="none" xmlns="http://www.w3.org/2000/svg">
<path d="M139.08 38.4335C137.7 37.0235 136.26 35.6735 134.95 34.2035C131.8 30.6635 131.75 26.9935 134.95 23.5635C137.79 20.5235 140.72 17.5535 143.78 14.7235C147.44 11.3335 150.59 11.3635 154.28 14.8335C156.09 16.5335 157.56 18.5935 159 20.2735C163.43 18.4135 167.08 16.8835 171.29 15.1235C171.29 13.3935 171.26 11.4435 171.29 9.48351C171.43 2.57351 173.86 0.103508 180.6 0.0435076C184.1 0.0135076 187.6 -0.046492 191.1 0.063508C196.15 0.223508 198.73 2.78351 198.97 7.81351C199.08 10.1335 198.99 12.4535 198.99 14.9935C202.9 16.6735 206.67 18.2935 210.69 20.0235C212.39 18.3535 214.12 16.5735 215.94 14.8835C219.54 11.5535 222.99 11.3235 226.56 14.5135C229.78 17.3935 232.84 20.4935 235.73 23.7135C238.92 27.2535 238.81 30.3135 235.68 33.9135C234.28 35.5335 232.72 37.0135 230.73 39.0635C232.83 39.1835 234.26 39.3235 235.7 39.3235C243.87 39.3435 252.03 39.2735 260.2 39.3635C263.19 39.4035 266.2 39.6135 269.14 40.1035C276.29 41.2935 282.42 48.6135 283.01 56.4435C283.12 57.9335 283.06 59.4435 283.06 60.9435C283.06 113.434 283.06 165.934 283.06 218.424C283.06 220.584 283.16 222.793 282.79 224.903C281.33 233.193 274.3 239.384 265.85 239.994C264.36 240.104 262.85 240.044 261.35 240.044C233.85 240.044 206.36 240.044 178.86 240.044H173C173 242.804 172.96 245.223 173.01 247.653C173.06 249.983 173.12 252.324 173.35 254.644C173.84 259.604 174.4 264.554 175.04 269.494C175.27 271.244 175.85 272.954 176.33 274.904C180.96 274.904 185.27 274.854 189.58 274.924C192.87 274.974 194.26 276.144 194.32 278.684C194.38 281.144 192.76 282.734 189.85 282.984C188.86 283.074 187.85 283.014 186.85 283.014C156.69 283.014 126.52 283.014 96.36 283.014C95.03 283.014 93.6701 283.114 92.3701 282.914C89.9201 282.524 88.55 280.674 88.79 278.324C89.01 276.114 90.2101 274.994 92.8701 274.944C97.3501 274.854 101.84 274.914 106.81 274.914C109.57 263.604 110.01 252.223 110.29 240.413C108.89 240.283 107.63 240.063 106.37 240.063C97.3701 240.033 88.3701 240.064 79.3701 240.024C77.9001 240.024 76.35 239.964 74.97 239.524C73.12 238.934 72 236.854 72.26 235.214C72.54 233.484 74.07 232.053 76.07 231.873C77.56 231.743 79.07 231.813 80.57 231.813C140.4 231.813 200.23 231.813 260.05 231.813C261.72 231.813 263.4 231.934 265.04 231.734C270.62 231.074 274.44 227.523 274.86 222.093C275.21 217.623 274.97 213.104 274.96 208.604C274.96 207.304 274.84 206.013 274.76 204.473H8.29004C8.01004 210.643 7.69 216.793 8.38 222.843C9.03 228.593 13.3601 231.714 19.8101 231.794C28.9701 231.904 38.1401 231.824 47.3101 231.824C49.9801 231.824 52.6501 231.934 55.3101 231.794C58.1701 231.644 60.18 232.553 61.01 235.593C60.52 238.953 58.33 240.084 55.05 240.074C42.72 240.014 30.3801 240.204 18.0601 239.994C7.83006 239.814 0.260007 231.993 0.0700073 221.753C-0.0499927 215.253 0.0400391 208.754 0.0400391 202.254C0.0400391 154.754 0.07 107.264 0 59.7635C0 53.4035 1.74004 48.0335 6.60004 43.7435C10.35 40.4335 14.92 39.8035 19.57 39.3735C21.06 39.2335 22.57 39.3335 24.07 39.3335C60.4 39.3335 96.7301 39.3335 133.06 39.3335H138.49C138.68 39.0335 138.87 38.7235 139.06 38.4235L139.08 38.4335ZM120.18 67.3435C107.88 66.3635 29.97 66.7735 26.07 67.8535V195.693H257.33V186.523C257.33 148.703 257.34 110.884 257.3 73.0735C257.3 71.1535 257.95 69.0635 256.14 67.0235C255.07 67.0235 253.76 66.9935 252.45 67.0335C251.82 67.0535 251.2 67.1935 250.17 67.3435C250.17 68.4735 250.2 69.4235 250.17 70.3835C249.98 76.3335 247.56 78.7135 241.54 78.8535C239.4 78.9035 237.26 78.8535 235.23 78.8535C233.47 83.0335 231.89 86.8035 230.1 91.0735C231.93 92.7135 233.93 94.2435 235.62 96.0735C238.86 99.5735 238.98 102.754 235.85 106.264C232.97 109.494 229.9 112.574 226.69 115.464C222.98 118.814 219.8 118.704 216.13 115.294C214.31 113.604 212.77 111.624 211.21 109.904C206.81 111.744 203.03 113.314 199.02 114.984C199.02 117.324 199.09 119.644 199.01 121.964C198.82 127.254 196.19 129.904 190.94 130.044C187.44 130.134 183.94 130.093 180.44 130.053C174.05 129.993 171.51 127.434 171.32 120.914C171.26 118.804 171.23 116.684 171.19 114.874C166.99 113.134 163.35 111.634 159.09 109.864C157.54 111.634 156.04 113.664 154.21 115.344C150.41 118.834 147.53 118.814 143.73 115.294C140.8 112.584 138.21 109.474 135.19 106.874C131.79 103.944 131.98 98.3535 135.35 95.4235C137.09 93.9135 138.61 92.1335 140.15 90.5535C138.52 86.6335 137 82.9835 135.28 78.8435C132.99 78.8435 130.52 78.9635 128.07 78.8235C122.9 78.5135 120.54 76.1235 120.21 71.0235C120.14 69.8935 120.2 68.7435 120.2 67.3335L120.18 67.3435ZM179.98 121.864C182.36 121.864 184 121.894 185.65 121.864C187.25 121.824 188.84 121.694 190.84 121.584C190.84 118.804 190.96 116.494 190.81 114.194C190.6 110.754 192.49 108.084 196.2 106.844C199.96 105.594 203.63 103.974 207.19 102.224C210.68 100.504 213.56 101.054 216.23 103.694C217.97 105.414 219.73 107.094 221.56 108.874C224.13 106.254 226.46 103.884 228.98 101.314C227.46 99.7835 225.93 98.2835 224.44 96.7235C220.85 92.9835 220.62 91.1535 222.79 86.4935C224.19 83.4835 225.57 80.4535 226.69 77.3335C228.76 71.5635 230.27 70.3835 236.48 70.2535C238.23 70.2135 239.98 70.1135 241.88 70.0235C241.84 66.3535 242.34 63.2435 241.43 59.9035C239.15 59.9035 236.99 59.9935 234.85 59.8835C230.49 59.6635 228.41 57.8635 226.92 53.6635C225.75 50.3835 224.43 47.1535 222.94 44.0035C220.52 38.8735 220.75 37.1035 224.83 32.9635C226.21 31.5635 227.57 30.1335 228.78 28.8935C226.31 26.2235 224.06 23.7835 221.65 21.1835C219.68 23.0935 217.9 24.8035 216.12 26.5235C213.41 29.1435 210.51 29.6035 207.05 27.8635C203.51 26.0835 199.81 24.5935 196.12 23.1335C192 21.5035 190.99 20.2635 190.84 15.7935C190.76 13.3535 190.77 10.9035 190.74 8.14351C187.73 8.14351 185.25 8.12351 182.78 8.15351C181.99 8.15351 181.2 8.29351 180.66 8.34351C180.34 8.78351 180.17 8.91351 180.17 9.04351C180.1 11.0335 180.04 13.0335 179.98 15.0235C179.84 19.5735 178.37 21.5235 174.15 23.1935C170.61 24.5935 167.11 26.0835 163.66 27.6835C159.33 29.6935 157.41 29.4535 153.83 26.0935C152.28 24.6335 150.77 23.1335 149.11 21.5135C147.84 22.6235 146.83 23.4435 145.9 24.3535C144.49 25.7235 143.14 27.1535 141.55 28.7835C143.5 30.8135 145.25 32.5535 146.92 34.3735C149.31 36.9835 149.66 39.8135 148.08 43.0835C146.43 46.5035 145.02 50.0435 143.67 53.5935C141.95 58.1035 139.7 59.7735 134.66 59.8935C132.72 59.9435 130.78 59.8935 128.42 59.8935C128.42 62.6135 128.39 64.7435 128.43 66.8835C128.45 67.8535 128.62 68.8135 128.77 70.2435C130.9 70.2435 132.86 70.1935 134.82 70.2435C139.88 70.3935 142.04 72.0435 143.75 76.6435C144.95 79.8935 146.23 83.1335 147.7 86.2735C149.83 90.8235 149.62 92.8135 146.11 96.5535C144.66 98.1035 143.16 99.6135 141.5 101.314C144.15 103.894 146.49 106.164 149.04 108.644C150.91 106.804 152.41 105.274 153.97 103.814C157.14 100.854 159.49 100.524 163.46 102.274C167.1 103.874 170.73 105.494 174.45 106.894C177.96 108.224 179.83 110.614 179.97 114.324C180.06 116.624 179.99 118.934 179.99 121.844L179.98 121.864ZM17.2 195.764V189.964C17.2 150.824 17.2 111.674 17.22 72.5335C17.22 70.5535 17.33 68.5235 17.78 66.6135C18.99 61.4935 22.13 59.0135 27.29 58.8035C28.79 58.7435 30.29 58.7735 31.79 58.7735C59.27 58.7735 86.7601 58.7735 114.24 58.7735C116.04 58.7735 117.85 58.7735 119.8 58.7735C121.03 52.6135 124.94 50.6935 130.49 51.1535C132.11 51.2835 133.75 51.1735 135.56 51.1735C135.81 50.0435 135.97 49.2935 136.27 47.9135C134.17 47.9135 132.38 47.9135 130.6 47.9135C94.29 47.9135 57.97 47.9135 21.66 47.9135C20.33 47.9135 18.99 47.8435 17.66 47.9535C13.46 48.3135 10.4001 50.3835 9.12006 54.4435C8.48006 56.4535 8.19 58.6635 8.19 60.7835C8.14 104.424 8.15002 148.063 8.15002 191.714C8.15002 192.994 8.15002 194.274 8.15002 195.764H17.19H17.2ZM166.94 274.704C165.92 262.904 164.94 251.594 163.96 240.334H119.14C118.15 251.884 117.19 263.184 116.21 274.704H166.94ZM250.75 58.8035C252.61 58.8035 254.26 58.7435 255.91 58.8135C261.03 59.0335 264.19 61.5835 265.38 66.6835C265.83 68.5935 265.92 70.6235 265.92 72.6035C265.95 111.914 265.93 151.213 265.97 190.523C265.97 192.273 265.47 194.144 266.49 195.754H274.98C274.98 193.924 274.98 192.304 274.98 190.674C274.98 147.534 274.98 104.394 274.98 61.2635C274.98 60.4335 275.01 59.5935 274.98 58.7635C274.67 51.9335 270.72 47.9935 263.94 47.9435C254.95 47.8735 245.95 47.9135 236.96 47.9435C236.05 47.9435 235.14 48.2535 233.29 48.5835C234.7 49.8035 235.38 50.8435 236.26 51.0435C237.68 51.3735 239.24 51.1635 240.74 51.1735C246.72 51.2235 248.6 52.5835 250.75 58.7935V58.8035Z" fill="black"/>
<path d="M141.24 222.023C138.41 222.023 135.57 222.093 132.74 222.003C129.66 221.903 128.06 220.493 128.03 218.043C128 215.583 129.56 214.033 132.65 213.983C138.65 213.873 144.65 213.873 150.64 213.993C153.63 214.053 155.23 215.743 155.1 218.203C154.99 220.443 153.45 221.893 150.73 221.993C147.57 222.103 144.4 222.023 141.23 222.023H141.24Z" fill="#2A9CEF"/>
<path d="M120.25 115.603C121.64 118.923 122.59 121.213 123.77 124.053C125.13 124.053 126.75 124.013 128.37 124.053C133.25 124.193 135.18 126.133 135.31 131.123C135.38 134.123 135.4 137.123 135.31 140.113C135.17 144.643 133.12 146.663 128.51 146.933C127.02 147.023 125.52 146.943 123.83 146.943C122.71 149.543 121.62 152.073 120.11 155.553C121.35 156.493 123.04 157.403 124.24 158.743C126.86 161.673 126.8 164.773 124.16 167.663C121.92 170.123 119.56 172.493 117.09 174.713C113.84 177.633 111.23 177.533 107.85 174.583C106.61 173.503 105.45 172.323 104.18 171.133C101.5 172.233 98.9299 173.293 96.0799 174.463C96.0799 176.293 96.16 178.103 96.06 179.913C95.86 183.803 93.7099 185.913 89.7199 186.033C86.3899 186.133 83.0599 186.143 79.7299 186.033C76.0199 185.903 73.9 184.023 73.37 180.313C73.11 178.523 73.3299 176.663 73.3299 174.583C70.7199 173.403 68.1999 172.253 65.5699 171.063C64.1699 172.403 62.9099 173.743 61.5199 174.913C58.5199 177.433 55.4799 177.483 52.5699 174.883C50.0899 172.663 47.7399 170.293 45.4899 167.833C42.8499 164.943 42.7899 161.943 45.1999 158.863C46.3199 157.433 47.6499 156.173 49.0699 154.653C48.5399 153.443 48.0199 152.263 47.5099 151.083C46.9899 149.863 46.4699 148.643 45.7499 146.933C44.1199 146.933 42.3099 147.043 40.5299 146.913C36.4299 146.603 34.2199 144.293 34.0799 140.163C33.9799 137.173 33.9999 134.163 34.0799 131.173C34.1899 126.413 36.3699 124.223 41.0899 124.053C42.5699 124.003 44.0499 124.053 45.7199 124.053C46.8599 121.343 47.9399 118.793 49.0799 116.093C47.7799 114.693 46.4899 113.423 45.3299 112.033C42.7899 109.003 42.7799 106.123 45.4799 103.143C47.7099 100.673 50.0599 98.2935 52.5299 96.0635C55.6199 93.2735 58.6699 93.3735 61.8399 96.2835C63.0599 97.4035 64.0099 98.8035 64.9699 99.9335C67.9799 98.6735 70.3899 97.6634 73.2299 96.4734C73.2299 94.9434 73.1499 93.3135 73.2499 91.6835C73.5299 87.0835 75.5799 85.0135 80.0999 84.8735C83.4299 84.7735 86.7699 84.7535 90.0899 84.8935C93.7899 85.0535 95.8699 87.1834 96.0799 90.8334C96.1799 92.6434 96.0999 94.4734 96.0999 96.3034C98.7099 97.4334 101.11 98.4834 103.98 99.7234C105.13 98.6434 106.38 97.3635 107.73 96.2035C111.03 93.3635 113.82 93.2235 117.09 96.0435C119.6 98.2135 121.97 100.593 124.14 103.103C126.94 106.333 126.85 109.283 124.03 112.463C122.94 113.683 121.5 114.593 120.28 115.593L120.25 115.603ZM126.86 132.153C125.17 132.153 123.87 132.133 122.57 132.153C119.13 132.203 117 130.573 115.87 127.323C114.95 124.663 113.8 122.073 112.68 119.483C110.99 115.613 111.3 113.543 114.15 110.493C115.04 109.533 115.93 108.563 116.58 107.863C115.13 106.323 113.79 104.893 112.06 103.063C111.2 104.133 110.4 105.213 109.51 106.203C107.08 108.913 104.25 109.293 100.98 107.733C98.4399 106.523 95.84 105.403 93.18 104.473C89.79 103.293 87.8999 101.203 88.0199 97.4734C88.0599 96.0534 87.8599 94.6235 87.7599 93.1435C85.5199 93.2635 83.6699 92.5435 81.9499 93.7835C81.8999 94.7835 81.83 95.7834 81.81 96.7734C81.73 100.943 79.8 103.543 75.68 104.743C73.16 105.473 70.8199 106.823 68.3799 107.863C65.3499 109.153 62.5799 108.833 60.1299 106.473C59.1099 105.483 58.0099 104.573 56.7599 103.473C55.2599 105.133 54.0899 106.433 52.8399 107.813C53.9799 109.043 54.8499 110.043 55.7899 110.963C58.2599 113.373 58.5999 116.023 57.1299 119.143C55.8599 121.823 54.8399 124.633 53.7799 127.403C52.5699 130.553 50.4399 132.253 46.9699 132.183C45.5299 132.153 44.08 132.343 42.68 132.433V138.543C44.22 138.643 45.3699 138.723 46.5199 138.783C51.4399 139.033 52.3799 139.793 54.0399 144.483C54.8099 146.663 55.6999 148.803 56.6699 150.903C58.7099 155.283 58.5299 156.863 55.4199 160.323C54.5599 161.273 53.77 162.283 52.81 163.423C54.35 164.833 55.6499 166.033 57.0899 167.353C58.2699 166.233 59.2299 165.343 60.1699 164.433C62.7699 161.943 65.5599 161.543 68.8299 163.243C71.1599 164.453 73.6599 165.393 76.1699 166.213C79.5599 167.333 81.4499 169.533 81.7599 173.073C81.8899 174.533 81.9699 175.993 82.0899 177.633C84.2099 177.933 86.0999 178.363 88.0699 177.233C88.0699 175.823 88.1099 174.493 88.0699 173.163C87.9399 169.893 89.5099 167.863 92.4899 166.683C95.5699 165.473 98.6199 164.193 101.64 162.833C104.42 161.583 106.79 162.053 108.96 164.123C110.13 165.233 111.36 166.273 112.52 167.313C114.14 165.903 115.48 164.733 116.96 163.443C115.8 162.203 114.97 161.173 114 160.283C111.41 157.913 111.32 154.983 112.34 152.013C113.41 148.883 114.85 145.883 116.13 142.813C117.19 140.253 119.05 138.863 121.87 138.813C123.49 138.783 125.11 138.643 126.9 138.543V132.153H126.86Z" fill="black"/>
<path d="M217.5 65.0235C217.97 77.6735 208.95 93.5235 190.87 96.7435C172.09 100.093 157.02 87.1435 153.85 71.8935C152.28 64.3635 153.35 57.4335 156.44 50.6235C156.99 49.4235 157.7 48.2635 158.51 47.2135C160.26 44.9635 162.15 44.5535 164.1 45.8435C166.17 47.2135 166.59 48.9435 165.51 51.4535C164.34 54.1835 163.03 56.8735 162.09 59.6935C159.09 68.6435 164.16 83.2335 177.84 87.7235C187.56 90.9035 197.27 87.5835 203.52 80.2535C209.51 73.2335 210.82 62.9635 206.68 54.5635C202.45 45.9835 192.86 40.4535 183.41 41.2135C181.76 41.3435 180.15 41.8835 178.51 42.0535C175.63 42.3435 173.71 40.9335 173.43 38.4935C173.2 36.4635 174.62 34.7035 177.14 33.9935C192.99 29.4935 210.85 38.6635 215.98 55.7635C216.87 58.7435 217.02 61.9335 217.52 65.0335L217.5 65.0235Z" fill="black"/>
<path d="M202.08 65.0935C201.89 73.2635 195.82 81.8035 185.22 81.8235C176.64 81.8435 168.59 75.8435 168.59 65.0235C168.59 54.8135 175.97 48.3535 185.29 48.3335C195.89 48.3135 201.95 56.9435 202.08 65.0935ZM193.66 65.1135C193.71 60.7535 189.88 56.8835 185.43 56.8035C180.67 56.7135 177.15 60.0235 177.01 64.7235C176.86 69.7135 180.35 73.3135 185.29 73.2735C189.8 73.2435 193.61 69.5235 193.66 65.1135Z" fill="#2A9CEF"/>
<path d="M84.5501 157.264C72.3401 157.174 63.0201 147.554 62.8701 135.294C62.7601 125.644 70.0601 113.504 84.8101 113.454C97.8901 113.404 106.74 123.164 106.77 135.284C106.8 149.544 95.2201 157.694 84.5501 157.264ZM85.0401 148.984C92.6301 148.904 98.0201 142.964 98.2701 135.154C98.4801 128.784 92.2901 121.674 84.4501 121.834C76.1601 122.004 70.9401 129.734 71.0501 135.704C71.1701 142.694 78.1401 149.664 85.0401 148.984Z" fill="#2A9CEF"/>
</svg>
