<svg width="283" height="283" viewBox="0 0 283 283" fill="none" xmlns="http://www.w3.org/2000/svg">
<path d="M54.8546 160.161C45.9146 150.151 44.7446 135.961 60.4946 126.651C55.6946 110.531 58.2846 104.151 72.8746 96.6305C71.2946 84.9305 75.9546 76.7405 87.5946 72.5705C86.9546 66.3605 87.0946 60.3005 91.5646 55.2005C96.4546 49.6205 102.405 47.2205 109.785 48.4105C111.055 48.6105 112.785 49.0305 113.605 48.4105C120.035 43.6305 126.885 45.4705 133.785 46.6505C146.545 48.8505 159.305 51.0005 172.095 53.0205C183.725 54.8605 189.785 63.5505 188.685 77.4305C199.895 81.3405 204.855 89.3205 203.455 100.191C207.785 104.091 212.635 106.96 215.215 111.2C217.685 115.28 217.805 120.781 219.125 126.351C235.205 132.341 236.335 149.561 226.395 159.771C232.015 165.401 237.585 171.101 243.365 176.591C244.125 177.311 246.095 177.341 247.275 176.961C255.275 174.401 261.995 176.41 267.775 182.26C270.705 185.22 273.715 188.111 276.575 191.131C283.695 198.651 284.245 209.481 277.055 216.791C256.975 237.231 236.695 257.501 216.215 277.531C209.065 284.521 198.215 283.961 190.915 277.111C187.515 273.921 184.215 270.621 180.985 267.251C175.695 261.721 174.305 255.301 176.415 247.901C176.835 246.431 176.275 244.011 175.235 242.901C169.305 236.591 163.115 230.521 156.935 224.451C156.045 223.581 154.755 222.671 153.605 222.611C146.135 222.231 138.645 221.811 131.185 222.021C128.625 222.091 125.595 223.371 123.695 225.101C117.775 230.461 112.375 236.401 106.595 241.921C104.575 243.841 104.405 245.391 105.375 247.971C108.055 255.121 106.725 261.751 101.485 267.371C98.1946 270.901 94.8046 274.361 91.2346 277.621C83.3646 284.821 72.8246 284.731 65.1446 277.431C61.1546 273.651 57.3446 269.681 53.4846 265.771C50.8746 263.131 50.2846 260.111 53.0146 257.411C55.7546 254.701 58.7746 255.391 61.3846 257.981C65.0546 261.611 68.6246 265.351 72.3746 268.901C76.4946 272.791 80.0746 272.761 84.1646 268.881C87.1846 266.021 90.1846 263.111 93.0046 260.051C96.5246 256.231 96.4746 252.741 92.8546 249.101C73.9546 230.081 55.0546 211.071 36.0746 192.131C29.8946 185.961 26.8146 186.101 20.6446 192.281C18.4046 194.521 16.0946 196.691 13.9346 199.001C10.3246 202.871 10.2546 206.611 13.8646 210.471C17.1646 213.991 20.6946 217.301 24.0946 220.741C27.9346 224.631 28.4246 227.521 25.5046 230.151C22.0646 233.251 19.1646 231.681 16.4246 228.861C12.8246 225.161 9.04462 221.631 5.49462 217.881C-1.62538 210.361 -1.87538 199.881 5.03462 192.171C8.47462 188.331 12.1846 184.701 15.9946 181.231C20.9046 176.751 26.8546 175.391 33.1946 177.141C35.8846 177.881 37.4446 177.281 39.2546 175.441C44.2846 170.341 49.4746 165.421 54.8646 160.171L54.8546 160.161ZM45.1646 184.481C62.6246 202.051 79.4046 218.941 96.7546 236.391C102.965 230.051 109.315 223.731 115.475 217.231C119.645 212.841 124.685 210.84 130.615 210.82C134.275 210.81 137.995 210.561 141.605 211.061C151.535 212.441 160.475 211.501 167.275 202.901C169.425 200.181 172.595 200.061 175.145 202.671C177.635 205.221 177.355 208.101 175.095 210.731C172.705 213.511 170.225 216.2 167.935 218.76C173.385 224.22 179.345 230.191 184.985 235.851C201.765 219.051 218.685 202.11 234.965 185.82C229.385 180.12 223.605 174.22 217.765 168.271C217.345 168.651 216.675 169.171 216.125 169.781C213.335 172.821 210.025 174.681 206.735 171.101C203.605 167.691 205.385 164.461 208.425 161.631C211.835 158.451 215.085 155.091 218.335 151.751C222.305 147.661 222.575 142.75 219.115 139.39C215.635 136.01 211.255 136.221 207.125 140.001C205.895 141.121 204.745 142.33 203.565 143.51C200.995 146.05 198.125 147.041 195.235 144.291C192.165 141.361 193.025 138.301 195.695 135.551C198.485 132.681 201.405 129.951 204.155 127.041C207.505 123.501 207.705 118.511 204.775 115.371C201.725 112.101 196.925 111.961 193.145 115.131C191.615 116.411 190.215 117.86 188.855 119.32C186.115 122.26 182.865 123.571 179.745 120.541C176.545 117.421 178.075 114.22 180.905 111.45C184.115 108.3 187.415 105.211 190.345 101.811C193.415 98.2605 193.155 94.1505 190.135 91.0005C187.105 87.8305 182.495 87.5905 178.875 90.6005C176.955 92.1905 175.295 94.0805 173.495 95.8205C170.855 98.3705 167.965 99.0905 165.165 96.2705C162.375 93.4705 163.035 90.5605 165.605 87.9405C168.645 84.8505 171.815 81.8905 174.795 78.7505C178.625 74.7105 178.755 69.5905 175.275 66.3305C171.825 63.0905 167.355 63.3505 163.275 67.2505C159.175 71.1605 155.355 75.3605 151.185 79.1905C148.935 81.2605 148.405 83.0005 149.575 86.0405C152.515 93.7205 150.545 101.85 144.195 106.76C140.655 109.5 136.135 110.981 131.575 113.271C130.155 122.741 124.825 129.43 114.045 131.2C113.055 131.36 111.895 133.38 111.635 134.7C110.055 142.69 104.535 148.581 96.5846 150.041C94.0146 150.511 92.8546 151.341 92.1846 154.181C89.1846 166.921 78.3346 172.641 65.8246 168.711C64.3446 168.251 61.8946 168.731 60.7546 169.741C55.4046 174.481 50.3446 179.551 45.1746 184.521L45.1646 184.481ZM271.475 204.591C270.295 202.351 269.645 200.241 268.305 198.741C265.445 195.511 262.315 192.491 259.135 189.561C255.315 186.061 251.825 185.971 248.135 189.621C228.405 209.201 208.735 228.841 189.135 248.551C185.505 252.201 185.605 255.781 189.085 259.581C191.785 262.521 194.665 265.301 197.545 268.061C201.965 272.291 205.745 272.341 210.085 268.021C229.315 248.891 248.515 229.721 267.645 210.481C269.185 208.931 270.085 206.761 271.465 204.591H271.475ZM106.415 57.7505C103.455 60.2705 100.695 61.7205 99.3046 64.0105C97.3146 67.2805 98.3446 70.7805 101.085 73.5305C109.175 81.6405 117.265 89.7505 125.445 97.7605C126.585 98.8705 128.135 99.7505 129.655 100.251C133.415 101.481 138.005 99.0705 139.175 95.1205C140.345 91.2005 139.485 88.5105 135.045 86.5605C124.365 81.8505 116.705 73.7805 111.625 63.1905C110.725 61.3205 108.625 60.0205 106.405 57.7605L106.415 57.7505ZM120.935 112.651C119.895 110.151 119.645 108.281 118.585 107.191C111.395 99.7805 104.215 92.3505 96.6546 85.3305C93.4646 82.3605 89.3046 82.9405 86.2346 85.9605C83.1646 88.9705 82.4646 93.0805 85.4846 96.3205C92.5246 103.86 99.7946 111.231 107.475 118.111C109.165 119.621 113.345 119.751 115.645 118.781C117.945 117.811 119.315 114.661 120.945 112.661L120.935 112.651ZM76.6146 106.911C74.2846 108.881 70.9446 110.34 70.3146 112.57C69.5546 115.28 70.0946 119.441 71.8146 121.551C76.2846 127.061 81.6346 131.881 86.7946 136.801C90.2346 140.081 95.3746 139.981 98.4046 136.931C101.495 133.831 101.555 128.921 98.1446 125.311C93.3646 120.251 88.4246 115.31 83.3346 110.57C81.7546 109.1 79.4446 108.411 76.6046 106.911H76.6146ZM66.3246 136.921C65.1446 137.761 62.1346 138.871 60.9846 141.001C59.8446 143.101 59.5346 146.901 60.7246 148.751C62.9946 152.271 66.2246 155.501 69.7446 157.801C74.6446 161.001 81.4546 156.601 81.4946 150.741C81.5246 146.091 72.6846 137.151 66.3246 136.921ZM136.935 75.1305C142.395 70.2105 147.095 65.9705 152.165 61.3905C141.955 59.5905 132.115 57.8505 121.245 55.9405C124.515 65.9005 130.795 71.3805 136.935 75.1405V75.1305Z" fill="black"/>
<path d="M50.1947 0.790527C52.2447 2.11053 53.9047 2.85053 55.1347 4.04053C61.3147 10.0505 67.3647 16.2005 73.4847 22.2605C76.1847 24.9305 77.2547 27.9605 74.4747 30.9705C71.6147 34.0805 68.5247 33.1005 65.8147 30.4005C59.4747 24.0805 52.9947 17.8905 46.9347 11.3005C45.5847 9.83054 45.0447 6.78051 45.4947 4.77051C45.8447 3.25051 48.3747 2.23053 50.1847 0.790527H50.1947Z" fill="#2A9CEF"/>
<path d="M204.285 27.2604C205.635 25.2404 206.405 23.5804 207.625 22.3404C213.675 16.1504 219.875 10.0904 225.965 3.9304C228.745 1.1104 231.795 0.50037 234.705 3.27037C237.605 6.03037 236.645 9.04039 234.105 11.6004C227.775 17.9904 221.535 24.4804 214.905 30.5404C213.415 31.9104 210.335 32.4604 208.295 32.0004C206.765 31.6504 205.735 29.0804 204.285 27.2604Z" fill="#2A9CEF"/>
<path d="M146.145 17.8404C146.145 21.6704 146.185 25.5004 146.135 29.3204C146.095 32.9304 144.555 35.6704 140.705 35.7804C136.875 35.8804 134.965 33.2504 134.895 29.6604C134.735 21.8404 134.745 14.0104 134.895 6.19045C134.955 2.62045 136.735 -0.0395548 140.625 0.000445174C144.545 0.0404452 146.075 2.74042 146.135 6.35042C146.205 10.1804 146.155 14.0104 146.155 17.8304L146.145 17.8404Z" fill="#2A9CEF"/>
<path d="M37.1246 236.94C41.5946 238.12 43.5346 239.74 43.5446 243.17C43.5646 246.83 41.3346 249.27 38.0946 248.61C35.9746 248.18 33.0346 245.28 32.9146 243.35C32.7946 241.3 35.5946 239.08 37.1146 236.94H37.1246Z" fill="black"/>
<path d="M182.565 188.07C184.545 186.59 186.355 184.28 188.555 183.81C191.955 183.09 194.265 185.4 194.365 188.93C194.465 192.49 192.105 194.87 188.815 194.43C186.605 194.14 184.675 191.78 182.615 190.34C182.595 189.58 182.575 188.83 182.565 188.07Z" fill="black"/>
</svg>
