<svg width="284" height="270" viewBox="0 0 284 270" fill="none" xmlns="http://www.w3.org/2000/svg">
<path d="M264.648 170.93C265.918 174.05 267.218 177.26 268.578 180.61C269.728 180.78 270.858 180.95 271.998 181.11C278.548 182.06 282.728 186.59 283.038 193.25C283.168 196.08 283.088 198.92 283.068 201.75C283.008 210.25 279.268 214.7 270.988 216.17C270.188 216.31 269.358 216.32 268.528 216.39C267.188 219.6 265.918 222.64 264.668 225.63C266.028 227.78 267.858 229.71 268.568 232C270.008 236.66 269.588 241.25 265.908 245C263.688 247.26 261.468 249.52 259.178 251.7C253.378 257.2 247.698 257.46 241.318 252.59C240.668 252.1 240.008 251.62 239.338 251.13C238.138 251.61 237.068 252.04 235.998 252.47C232.178 253.97 228.828 255.13 228.648 260.71C228.488 265.66 223.068 269.2 217.908 269.41C214.248 269.56 210.578 269.52 206.908 269.45C200.168 269.33 195.318 265.59 194.628 258.85C194.218 254.86 191.828 254.27 189.088 253.07C186.278 251.84 184.178 250.62 181.158 253.43C177.648 256.7 172.528 257.48 168.638 254.53C163.808 250.87 159.298 246.47 155.698 241.62C152.698 237.57 153.738 232.55 157.078 228.71C158.938 226.57 159.248 224.86 157.808 222.57C157.278 221.74 156.818 220.78 156.648 219.82C156.098 216.64 154.088 216.16 151.238 216.18C138.238 216.3 125.238 216.24 112.238 216.23C110.738 216.23 109.208 216.33 107.758 216.04C104.478 215.38 102.808 213.15 102.978 210.04C103.158 206.83 104.848 205.15 108.598 205.1C117.258 204.98 125.928 205.04 134.598 205.03C136.388 205.03 138.188 205.03 140.658 205.03C140.658 201.44 140.618 198.32 140.658 195.21C140.808 186.33 143.988 182.71 152.758 180.96C153.968 180.72 155.388 179.65 155.978 178.57C157.238 176.26 158.018 173.69 159.058 171.07C158.338 170.18 157.578 169.32 156.908 168.4C152.848 162.86 153.068 157.14 157.648 152.04C159.648 149.81 161.828 147.74 163.978 145.65C170.108 139.73 175.878 139.43 182.628 144.64C183.138 145.04 183.678 145.41 184.238 145.81C187.388 144.5 190.438 143.23 193.758 141.84C193.918 140.58 194.018 139.1 194.308 137.66C195.548 131.5 200.308 127.47 206.588 127.3C209.588 127.22 212.588 127.26 215.588 127.29C223.798 127.36 228.448 131.72 229.188 140C229.228 140.49 229.358 140.96 229.478 141.63C232.768 142.98 236.098 144.35 238.318 145.27C243.078 143.24 246.948 141.59 251.428 139.68V85.0401H11.3882C11.2882 86.5801 11.1382 87.8801 11.1382 89.1801C11.1282 120.85 11.1082 152.51 11.1682 184.18C11.1682 186.65 11.4782 189.18 12.0282 191.59C14.0282 200.24 19.9282 204.93 28.8182 205C37.6482 205.07 46.4882 205.01 55.3182 205.02C56.8182 205.02 58.3182 205.04 59.8082 205.15C62.3382 205.34 64.0782 206.91 64.0282 209.23C63.9882 211.15 63.1982 213.57 61.8482 214.78C60.5782 215.92 58.1582 216.13 56.2382 216.16C47.4082 216.29 38.5682 216 29.7382 216.26C10.5382 216.84 1.12823 201.95 0.0882302 188.25C0.0282302 187.42 0.0182229 186.58 0.0182229 185.75C0.0182229 133.92 -0.0717722 82.0901 0.148228 30.2601C0.168228 25.4201 1.30822 20.2401 3.30822 15.8301C7.96822 5.65005 15.8582 -0.0199473 27.6382 5.27305e-05C96.1382 0.120053 164.628 0.0500527 233.128 0.0600527C250.798 0.0600527 262.378 11.3001 262.918 29.0701C263.088 34.7301 262.968 40.4001 262.968 46.0701C262.968 78.9001 262.948 111.73 263.028 144.57C263.028 146.43 263.318 148.71 264.398 150.07C270.908 158.33 271.098 162.42 264.658 170.93H264.648ZM251.488 73.1801C251.628 72.0301 251.778 71.3901 251.778 70.7501C251.798 57.2601 251.968 43.7601 251.678 30.2701C251.598 26.7401 250.558 23.0001 249.058 19.7701C246.618 14.5201 242.528 11.1601 236.208 11.1701C166.408 11.2101 96.6082 11.2201 26.8182 11.1601C21.8182 11.1601 17.8282 13.1801 15.5182 17.2101C13.4382 20.8401 11.5182 25.1501 11.3882 29.2201C10.9182 43.5301 11.2482 57.8601 11.2982 72.1801C11.2982 72.4501 11.6282 72.7201 11.9382 73.1801H251.488ZM249.538 151.95C247.838 153.57 246.288 155.06 244.738 156.54C242.548 158.63 240.098 158.8 237.388 157.65C232.358 155.52 227.338 153.38 222.248 151.4C219.398 150.29 217.998 148.4 218.088 145.35C218.148 143.24 218.098 141.13 218.098 138.41C214.208 138.41 210.908 138.23 207.648 138.53C206.778 138.61 205.638 140.01 205.348 141.01C204.948 142.39 205.178 143.98 205.218 145.48C205.298 148.79 203.618 150.6 200.578 151.73C195.778 153.52 191.078 155.59 186.368 157.61C183.508 158.84 180.948 158.8 178.648 156.43C177.168 154.91 175.588 153.49 173.748 151.74C170.688 154.81 167.898 157.59 164.988 160.51C166.378 162 167.498 163.22 168.638 164.41C172.718 168.69 172.688 169.52 170.048 174.9C168.158 178.76 166.438 182.76 165.218 186.87C164.128 190.53 161.978 192.08 158.398 192.13C156.448 192.16 154.498 192.13 151.948 192.13C151.948 195.95 151.768 199.25 152.068 202.5C152.148 203.38 153.538 204.48 154.548 204.83C155.738 205.24 157.178 205.01 158.508 204.96C162.188 204.83 164.168 206.39 165.278 210.1C166.588 214.52 168.628 218.75 170.618 222.93C172.618 227.12 172.598 228.36 169.418 231.8C168.088 233.24 166.738 234.65 165.608 235.85C168.458 239.18 170.978 242.13 173.628 245.23C175.568 243.44 176.788 242.34 177.988 241.22C181.908 237.58 182.998 237.56 187.678 239.84C191.548 241.72 195.548 243.37 199.608 244.79C204.488 246.5 205.288 247.35 205.488 252.64C205.558 254.41 205.698 256.18 205.808 258.02H218.128C218.128 255.98 218.098 254.19 218.128 252.41C218.228 247.72 219.378 246.5 223.788 244.89C228.288 243.24 232.718 241.34 237.038 239.26C239.988 237.84 242.428 238.01 244.778 240.27C246.398 241.83 248.098 243.31 249.118 244.24C252.518 241.44 255.428 239.04 258.568 236.45C257.218 234.97 256.268 233.86 255.248 232.82C251.038 228.55 251.008 227.41 253.728 221.91C255.488 218.36 256.878 214.6 258.168 210.84C259.888 205.81 260.658 205.11 265.958 204.99C267.128 204.96 268.428 205.27 269.418 204.84C270.428 204.4 271.738 203.29 271.818 202.37C272.108 199.14 271.928 195.86 271.928 192.15C269.338 192.15 267.528 192.2 265.728 192.14C261.268 191.98 260.088 190.93 258.488 186.73C256.778 182.25 254.958 177.79 252.888 173.47C251.388 170.36 251.508 167.76 253.938 165.28C255.418 163.77 256.828 162.2 258.498 160.41C255.448 157.53 252.708 154.96 249.508 151.94L249.538 151.95Z" fill="black"/>
<path d="M44.0083 144.75C48.0783 149.37 51.9183 153.73 55.7483 158.08C56.4083 158.83 57.1483 159.52 57.7083 160.33C59.5883 163.08 59.2883 165.88 56.8983 167.9C54.4983 169.93 51.7783 169.99 49.7283 167.8C43.9683 161.61 38.3083 155.3 32.9383 148.78C30.7383 146.1 31.0983 142.65 33.3383 140.01C38.4983 133.94 43.7883 127.98 49.2283 122.16C51.7183 119.5 54.8783 119.58 57.1683 121.81C59.4683 124.05 59.5983 126.93 57.1483 129.81C52.9683 134.74 48.6083 139.53 43.9983 144.74L44.0083 144.75Z" fill="black"/>
<path d="M124.678 144.79C120.868 140.48 117.258 136.4 113.658 132.32C112.778 131.32 111.818 130.38 111.068 129.29C109.208 126.56 109.518 123.62 111.748 121.65C114.058 119.62 116.898 119.59 119.318 122.02C122.248 124.96 124.908 128.17 127.678 131.27C130.108 134 132.628 136.67 134.938 139.5C137.818 143.03 137.948 146.45 135.018 149.9C130.078 155.73 124.968 161.43 119.768 167.04C117.118 169.9 114.308 170.05 111.858 167.99C109.358 165.89 109.068 162.5 111.558 159.56C115.728 154.63 120.128 149.89 124.678 144.78V144.79Z" fill="black"/>
<path d="M95.1781 123.22C93.7681 129.29 92.2582 135.91 90.6882 142.51C88.8082 150.4 86.8881 158.28 84.9781 166.16C84.7081 167.29 84.4882 168.45 84.0582 169.52C82.8082 172.65 80.4181 173.9 77.3281 173.16C74.5681 172.5 72.7582 169.79 73.4082 166.61C74.4782 161.43 75.8582 156.31 77.0882 151.16C79.3682 141.66 81.6281 132.15 83.8981 122.65C84.0881 121.84 84.2082 121.01 84.4982 120.24C85.6982 117.07 88.0682 115.65 91.0582 116.25C93.9082 116.82 95.4581 119.21 95.1781 123.22Z" fill="black"/>
<path d="M83.9082 205.07C87.1282 205.13 89.2082 207.2 89.2282 210.36C89.2482 213.42 86.4482 216.25 83.5282 216.12C80.7382 216 78.1982 213.36 78.1382 210.51C78.0682 207.31 80.5082 205.01 83.9082 205.07Z" fill="black"/>
<path d="M190.188 61.22C182.038 61.22 173.888 61.37 165.738 61.18C158.118 61 152.388 57.36 149.028 50.5C145.838 43.99 146.568 37.58 150.668 31.65C153.538 27.5 157.568 25.01 162.568 24.16C163.058 24.08 163.558 23.96 164.048 23.96C181.668 23.94 199.298 23.67 216.908 24.04C224.798 24.2 230.268 28.97 232.898 36.33C237.188 48.39 228.618 60.71 215.628 61.16C207.158 61.46 198.668 61.22 190.188 61.22ZM190.528 50.11C197.688 50.11 204.848 50.11 212.018 50.11C213.348 50.11 214.698 50.17 216.008 49.95C220.148 49.25 223.248 45.66 222.948 42.07C222.628 38.25 219.428 35.14 215.128 35.12C198.638 35.02 182.148 35.01 165.668 35.15C161.568 35.18 158.678 38.19 158.348 41.97C158.028 45.61 160.618 48.98 164.588 49.83C166.028 50.14 167.568 50.11 169.058 50.11C176.218 50.14 183.378 50.12 190.548 50.12L190.528 50.11Z" fill="black"/>
<path d="M70.3383 42.26C70.4483 52.72 62.3783 61.07 52.0083 61.21C41.8383 61.34 33.1483 52.89 33.0183 42.74C32.8783 32.54 41.2483 23.97 51.5083 23.8C61.8583 23.63 70.2183 31.83 70.3283 42.26H70.3383ZM51.6983 50.03C55.6983 50.09 58.9783 46.9 59.1183 42.81C59.2683 38.41 56.1283 35.1 51.7983 35.1C47.8983 35.1 44.3283 38.41 44.1183 42.21C43.9183 46.07 47.6983 49.97 51.6883 50.03H51.6983Z" fill="#2A9CEF"/>
<path d="M100.088 23.83C110.328 23.73 118.948 32.12 119.078 42.31C119.208 52.37 110.628 61.08 100.458 61.22C90.2382 61.35 81.7082 53.01 81.5282 42.7C81.3482 32.5 89.7682 23.93 100.088 23.83ZM100.278 50.03C104.258 50 108.078 46.11 107.908 42.27C107.738 38.42 104.238 35.13 100.298 35.11C95.9782 35.08 92.7882 38.39 92.9082 42.76C93.0182 46.83 96.2882 50.06 100.278 50.03Z" fill="#2A9CEF"/>
<path d="M212.008 232.36C195.188 233.12 177.618 218.48 177.848 198.21C178.068 179.51 193.288 164.29 211.988 164.32C230.508 164.35 246.148 179.89 245.948 198.44C245.718 220.12 227.408 233.05 212.008 232.36ZM211.888 221.24C224.508 221.24 234.808 210.99 234.788 198.45C234.768 186.01 224.258 175.48 211.858 175.48C199.358 175.48 189.018 185.9 189.028 198.46C189.028 211.08 199.228 221.24 211.888 221.24Z" fill="#2A9CEF"/>
</svg>
